<svg width="25" height="27" viewBox="0 0 25 27" fill="none" xmlns="http://www.w3.org/2000/svg">
<path d="M0.833252 26.25V2.91667C0.833252 2.11458 1.11884 1.42795 1.69002 0.856771C2.2612 0.28559 2.94784 0 3.74992 0H21.2499C22.052 0 22.7386 0.28559 23.3098 0.856771C23.881 1.42795 24.1666 2.11458 24.1666 2.91667V26.25H21.2499V23.3333H3.74992V26.25H0.833252ZM3.74992 11.6667H11.0416V2.91667H3.74992V11.6667ZM13.9583 5.83333H21.2499V2.91667H13.9583V5.83333ZM13.9583 11.6667H21.2499V8.75H13.9583V11.6667ZM9.58325 18.9583H15.4166V16.0417H9.58325V18.9583ZM3.74992 14.5833V20.4167H21.2499V14.5833H3.74992Z" fill="#A9A9A9"/>
</svg>
