<svg width="35" height="35" viewBox="0 0 35 35" fill="none" xmlns="http://www.w3.org/2000/svg">
<path d="M5.8335 30.625V7.29167C5.8335 6.48958 6.11909 5.80295 6.69027 5.23177C7.26145 4.66059 7.94808 4.375 8.75016 4.375H26.2502C27.0522 4.375 27.7389 4.66059 28.3101 5.23177C28.8812 5.80295 29.1668 6.48958 29.1668 7.29167V30.625H26.2502V27.7083H8.75016V30.625H5.8335ZM8.75016 16.0417H16.0418V7.29167H8.75016V16.0417ZM18.9585 10.2083H26.2502V7.29167H18.9585V10.2083ZM18.9585 16.0417H26.2502V13.125H18.9585V16.0417ZM14.5835 23.3333H20.4168V20.4167H14.5835V23.3333ZM8.75016 18.9583V24.7917H26.2502V18.9583H8.75016Z" fill="#1AEBFF"/>
</svg>
