<svg width="80" height="80" viewBox="0 0 80 80" fill="none" xmlns="http://www.w3.org/2000/svg">
<path d="M21.8183 27.5757C21.3213 27.5757 20.9092 27.9878 20.9092 28.4848V43.0303C20.9092 43.5272 21.3213 43.9394 21.8183 43.9394C22.3152 43.9394 22.7274 43.5272 22.7274 43.0303V28.4848C22.7274 27.9878 22.3152 27.5757 21.8183 27.5757ZM36.3637 16.0606C36.8607 16.0606 37.2728 15.6485 37.2728 15.1515C37.2728 14.3151 37.9516 13.6363 38.788 13.6363C39.6243 13.6363 40.3031 14.3151 40.3031 15.1515C40.3031 15.9878 39.6243 16.6666 38.788 16.6666C38.291 16.6666 37.8789 17.0788 37.8789 17.5757V19.406L29.9516 22.8C29.6122 22.9454 29.394 23.2727 29.394 23.6363V26.0606C29.394 26.5575 29.8061 26.9697 30.3031 26.9697H47.2728C47.7698 26.9697 48.1819 26.5575 48.1819 26.0606V23.6363C48.1819 23.2727 47.9637 22.9454 47.6365 22.8L39.6971 19.3939V18.3515C41.091 17.9515 42.1213 16.6666 42.1213 15.1394C42.1213 13.2969 40.6304 11.806 38.788 11.806C36.9455 11.806 35.4546 13.2969 35.4546 15.1394C35.4546 15.6485 35.8668 16.0606 36.3637 16.0606ZM46.3637 25.1515H31.2122V24.2303L38.8001 20.9818L46.3637 24.2303V25.1515Z" fill="#FF6969"/>
<path d="M77.5757 42.1212H51.8182V7.87882C51.8182 7.38185 51.406 6.96973 50.9091 6.96973H26.6667H2.42423C1.92726 6.96973 1.51514 7.38185 1.51514 7.87882V72.1212C1.51514 72.6182 1.92726 73.0303 2.42423 73.0303H8.48483C8.87271 73.0303 9.22423 72.7758 9.34544 72.4122L10.3515 69.394H42.9818L43.9879 72.4122C44.1091 72.7879 44.4606 73.0303 44.8485 73.0303H50.9091C51.406 73.0303 51.8182 72.6182 51.8182 72.1212V51.2122H77.5757C78.0727 51.2122 78.4848 50.8 78.4848 50.3031V43.0303C78.4848 42.5334 78.0727 42.1212 77.5757 42.1212ZM3.33332 67.5758V64.5455H26.6667H50V67.5758H3.33332ZM50 50.3031V55.4546H27.5757V50H50V50.3031ZM27.5757 57.2728H50V62.7273H27.5757V57.2728ZM50 14.2425H45.4545C44.9576 14.2425 44.5454 14.6546 44.5454 15.1515C44.5454 15.6485 44.9576 16.0606 45.4545 16.0606H50V43.0303V48.1819H27.5757V16.0606H32.7273C33.2242 16.0606 33.6363 15.6485 33.6363 15.1515C33.6363 14.6546 33.2242 14.2425 32.7273 14.2425H27.5757V8.78791H50V14.2425ZM3.33332 8.78791H25.7576V49.0909V56.3637V62.7273H3.33332V8.78791ZM7.83029 71.2122H3.33332V69.394H8.43635L7.83029 71.2122ZM50 71.2122H45.503L44.897 69.394H50V71.2122ZM51.8182 49.0909V43.9394H63.3333V49.394H51.8182V49.0909ZM76.6667 49.394H65.1515V43.9394H76.6667V49.394Z" fill="#FF6969"/>
<path d="M56.6183 39.0181C56.7274 39.0666 56.8486 39.0909 56.9698 39.0909H73.9395C74.0607 39.0909 74.1698 39.0666 74.291 39.0181C74.5092 38.9212 74.691 38.7515 74.788 38.5212C74.8365 38.4121 74.8607 38.2909 74.8607 38.1696V18.7757C74.8607 18.6545 74.8365 18.5454 74.788 18.4242C74.691 18.206 74.5213 18.0242 74.291 17.9272C74.1819 17.8787 74.0607 17.8545 73.9395 17.8545H56.9698C56.8486 17.8545 56.7395 17.8787 56.6183 17.9272C56.4001 18.0242 56.2183 18.1939 56.1213 18.4242C56.0728 18.5333 56.0486 18.6545 56.0486 18.7757V38.1696C56.0486 38.2909 56.0728 38.3999 56.1213 38.5212C56.2183 38.7515 56.4001 38.9333 56.6183 39.0181ZM69.394 33.6363H61.5152V23.3333H69.394V33.6363ZM60.9819 35.4545H69.9274L71.7455 37.2727H59.1637L60.9819 35.4545ZM71.2122 34.1696V22.7999L73.0304 20.9818V35.9878L71.2122 34.1696ZM69.9274 21.5151H60.9819L59.1637 19.6969H71.7455L69.9274 21.5151ZM59.6971 22.7999V34.1696L57.8789 35.9878V20.9818L59.6971 22.7999ZM73.9395 54.2424H56.9698C56.4728 54.2424 56.0607 54.6545 56.0607 55.1515V72.1212C56.0607 72.6181 56.4728 73.0303 56.9698 73.0303H73.9395C74.4365 73.0303 74.8486 72.6181 74.8486 72.1212V55.1515C74.8486 54.6545 74.4365 54.2424 73.9395 54.2424ZM73.0304 71.2121H57.8789V56.0606H73.0304V71.2121Z" fill="#FF6969"/>
</svg>
