<svg width="25" height="25" viewBox="0 0 25 25" fill="none" xmlns="http://www.w3.org/2000/svg">
<path d="M3.12492 20.8332C2.82978 20.8332 2.58238 20.7333 2.38273 20.5337C2.18308 20.334 2.08325 20.0866 2.08325 19.7915C2.08325 19.6179 2.11797 19.4573 2.18742 19.3097C2.25686 19.1622 2.36103 19.045 2.49992 18.9582L11.4583 12.2394V10.4165C11.4583 10.1214 11.5624 9.87397 11.7708 9.67432C11.9791 9.47466 12.2308 9.37484 12.526 9.37484C12.96 9.37484 13.3246 9.21859 13.6197 8.90609C13.9148 8.59359 14.0624 8.22032 14.0624 7.7863C14.0624 7.35227 13.9105 6.98768 13.6067 6.69255C13.3029 6.39741 12.9339 6.24984 12.4999 6.24984C12.0659 6.24984 11.697 6.40175 11.3931 6.70557C11.0893 7.00939 10.9374 7.37831 10.9374 7.81234H8.85409C8.85409 6.80539 9.20999 5.94602 9.92179 5.23421C10.6336 4.52241 11.493 4.1665 12.4999 4.1665C13.5069 4.1665 14.3662 4.51807 15.078 5.22119C15.7898 5.92432 16.1458 6.77935 16.1458 7.7863C16.1458 8.60227 15.907 9.33143 15.4296 9.9738C14.9522 10.6162 14.3228 11.0589 13.5416 11.3019V12.2394L22.4999 18.9582C22.6388 19.045 22.743 19.1622 22.8124 19.3097C22.8819 19.4573 22.9166 19.6179 22.9166 19.7915C22.9166 20.0866 22.8168 20.334 22.6171 20.5337C22.4175 20.7333 22.1701 20.8332 21.8749 20.8332H3.12492ZM6.24992 18.7498H18.7499L12.4999 14.0623L6.24992 18.7498Z" fill="black"/>
</svg>
