<svg width="35" height="35" viewBox="0 0 35 35" fill="none" xmlns="http://www.w3.org/2000/svg">
<path d="M4.37484 29.1668C3.96164 29.1668 3.61529 29.0271 3.33577 28.7476C3.05626 28.468 2.9165 28.1217 2.9165 27.7085C2.9165 27.4654 2.96512 27.2406 3.06234 27.034C3.15956 26.8274 3.30539 26.6634 3.49984 26.5418L16.0415 17.1356V14.5835C16.0415 14.1703 16.1873 13.8239 16.479 13.5444C16.7707 13.2649 17.1231 13.1252 17.5363 13.1252C18.1439 13.1252 18.6544 12.9064 19.0675 12.4689C19.4807 12.0314 19.6873 11.5088 19.6873 10.9012C19.6873 10.2936 19.4747 9.78315 19.0493 9.36995C18.624 8.95676 18.1075 8.75016 17.4998 8.75016C16.8922 8.75016 16.3757 8.96284 15.9504 9.38818C15.525 9.81353 15.3123 10.33 15.3123 10.9377H12.3957C12.3957 9.52794 12.8939 8.32482 13.8905 7.32829C14.887 6.33176 16.0901 5.8335 17.4998 5.8335C18.9096 5.8335 20.1127 6.32568 21.1092 7.31006C22.1057 8.29443 22.604 9.49148 22.604 10.9012C22.604 12.0436 22.2698 13.0644 21.6014 13.9637C20.933 14.863 20.0519 15.4828 18.9582 15.8231V17.1356L31.4998 26.5418C31.6943 26.6634 31.8401 26.8274 31.9373 27.034C32.0346 27.2406 32.0832 27.4654 32.0832 27.7085C32.0832 28.1217 31.9434 28.468 31.6639 28.7476C31.3844 29.0271 31.038 29.1668 30.6248 29.1668H4.37484ZM8.74984 26.2502H26.2498L17.4998 19.6877L8.74984 26.2502Z" fill="#3FF23F"/>
</svg>
