<svg width="30" height="35" viewBox="0 0 30 35" fill="none" xmlns="http://www.w3.org/2000/svg">
<path d="M0 23.8636V27.0455C1.15872 27.0455 2.3061 27.2512 3.37662 27.651C4.44714 28.0507 5.41984 28.6366 6.23918 29.3753C7.05852 30.1139 7.70845 30.9908 8.15188 31.9559C8.5953 32.921 8.82353 33.9554 8.82353 35H12.3529C12.3529 32.0465 11.0515 29.2139 8.73485 27.1254C6.41822 25.0369 3.2762 23.8636 0 23.8636ZM0 30.2273V35H5.29412C5.29412 33.7342 4.73635 32.5202 3.74351 31.6252C2.75067 30.7301 1.40409 30.2273 0 30.2273ZM0 17.5V20.6818C4.21226 20.6818 8.252 22.1903 11.2305 24.8755C14.209 27.5607 15.8824 31.2026 15.8824 35H19.4118C19.4118 25.3273 10.7294 17.5 0 17.5ZM26.4706 0H8.82353C7.88747 0 6.98975 0.335226 6.32786 0.931933C5.66597 1.52864 5.29412 2.33795 5.29412 3.18182V14.9068C6.51176 15.1614 7.69412 15.4955 8.82353 15.9091V6.36364H26.4706V27.0455H21.1235C22.0588 29.0341 22.6059 31.1659 22.8 33.4091H26.4706C27.4066 33.4091 28.3044 33.0739 28.9663 32.4772C29.6282 31.8805 30 31.0711 30 30.2273V3.18182C30 2.33795 29.6282 1.52864 28.9663 0.931933C28.3044 0.335226 27.4066 0 26.4706 0Z" fill="white"/>
</svg>
