<svg width="70" height="70" viewBox="0 0 70 70" fill="none" xmlns="http://www.w3.org/2000/svg">
<circle cx="35" cy="35" r="34.5" fill="white" stroke="#747775"/>
<mask id="mask0_903_1880" style="mask-type:luminance" maskUnits="userSpaceOnUse" x="17" y="17" width="35" height="35">
<path d="M52 17H17V52H52V17Z" fill="white"/>
</mask>
<g mask="url(#mask0_903_1880)">
<path d="M51.3 34.8977C51.3 33.6568 51.1887 32.4637 50.9818 31.3181H34.5V38.0875H43.9181C43.5125 40.275 42.2796 42.1284 40.4262 43.3693V47.7602H46.0819C49.3909 44.7137 51.3 40.2272 51.3 34.8977Z" fill="#4285F4"/>
<path d="M34.5 52C39.225 52 43.1863 50.4328 46.0817 47.7602L40.4261 43.3693C38.8591 44.4193 36.8545 45.0397 34.5 45.0397C29.942 45.0397 26.0841 41.9613 24.7079 37.825H18.8613V42.359C21.741 48.0784 27.6591 52 34.5 52Z" fill="#34A853"/>
<path d="M24.7079 37.8251C24.3579 36.7751 24.1591 35.6535 24.1591 34.5001C24.1591 33.3466 24.3579 32.2251 24.7079 31.1751V26.641H18.8613C17.6762 29.0035 17 31.6763 17 34.5001C17 37.3239 17.6762 39.9966 18.8613 42.3591L24.7079 37.8251Z" fill="#FBBC04"/>
<path d="M34.5 23.9603C37.0692 23.9603 39.3761 24.8432 41.1898 26.5772L46.2091 21.5579C43.1785 18.7341 39.217 17 34.5 17C27.6591 17 21.741 20.9216 18.8613 26.6409L24.7079 31.175C26.0841 27.0387 29.942 23.9603 34.5 23.9603Z" fill="#E94235"/>
</g>
</svg>
