<svg width="25" height="25" viewBox="0 0 25 25" fill="none" xmlns="http://www.w3.org/2000/svg">
<path d="M6.25008 2.08337C5.69755 2.08337 5.16764 2.30287 4.77694 2.69357C4.38624 3.08427 4.16675 3.61417 4.16675 4.16671V19.7917C4.16675 20.948 5.09383 21.875 6.25008 21.875V22.9167H8.33341V21.875H16.6667V22.9167H18.7501V21.875C19.9063 21.875 20.8334 20.948 20.8334 19.7917V4.16671C20.8334 3.61417 20.6139 3.08427 20.2232 2.69357C19.8325 2.30287 19.3026 2.08337 18.7501 2.08337H6.25008ZM6.25008 4.16671H11.4584V19.7917H6.25008V4.16671ZM13.5417 4.16671H18.7501V19.7917H13.5417V4.16671ZM8.33341 10.4167V13.5417H10.4167V10.4167H8.33341ZM14.5834 10.4167V13.5417H16.6667V10.4167H14.5834Z" fill="black"/>
</svg>
