<svg width="30" height="24" viewBox="0 0 30 24" fill="none" xmlns="http://www.w3.org/2000/svg">
<path d="M1.45833 23.3333C1.04514 23.3333 0.698785 23.1936 0.419271 22.9141C0.139757 22.6345 0 22.2882 0 21.875C0 21.6319 0.0486111 21.4071 0.145833 21.2005C0.243056 20.9939 0.388889 20.8299 0.583333 20.7083L13.125 11.3021V8.75C13.125 8.33681 13.2708 7.99045 13.5625 7.71094C13.8542 7.43142 14.2066 7.29167 14.6198 7.29167C15.2274 7.29167 15.7378 7.07292 16.151 6.63542C16.5642 6.19792 16.7708 5.67535 16.7708 5.06771C16.7708 4.46007 16.5582 3.94965 16.1328 3.53646C15.7075 3.12326 15.191 2.91667 14.5833 2.91667C13.9757 2.91667 13.4592 3.12934 13.0339 3.55469C12.6085 3.98003 12.3958 4.49653 12.3958 5.10417H9.47917C9.47917 3.69444 9.97743 2.49132 10.974 1.49479C11.9705 0.498264 13.1736 0 14.5833 0C15.9931 0 17.1962 0.492188 18.1927 1.47656C19.1892 2.46094 19.6875 3.65799 19.6875 5.06771C19.6875 6.21007 19.3533 7.2309 18.6849 8.13021C18.0165 9.02951 17.1354 9.64931 16.0417 9.98958V11.3021L28.5833 20.7083C28.7778 20.8299 28.9236 20.9939 29.0208 21.2005C29.1181 21.4071 29.1667 21.6319 29.1667 21.875C29.1667 22.2882 29.0269 22.6345 28.7474 22.9141C28.4679 23.1936 28.1215 23.3333 27.7083 23.3333H1.45833ZM5.83333 20.4167H23.3333L14.5833 13.8542L5.83333 20.4167Z" fill="#FF6969"/>
</svg>
