<svg width="35" height="35" viewBox="0 0 35 35" fill="none" xmlns="http://www.w3.org/2000/svg">
<path d="M4.37508 29.1666C3.96189 29.1666 3.61553 29.0268 3.33602 28.7473C3.0565 28.4678 2.91675 28.1214 2.91675 27.7083C2.91675 27.4652 2.96536 27.2404 3.06258 27.0338C3.1598 26.8272 3.30564 26.6631 3.50008 26.5416L16.0417 17.1353V14.5833C16.0417 14.1701 16.1876 13.8237 16.4792 13.5442C16.7709 13.2647 17.1233 13.1249 17.5365 13.1249C18.1442 13.1249 18.6546 12.9062 19.0678 12.4687C19.481 12.0312 19.6876 11.5086 19.6876 10.901C19.6876 10.2933 19.4749 9.7829 19.0496 9.36971C18.6242 8.95652 18.1077 8.74992 17.5001 8.74992C16.8924 8.74992 16.3759 8.96259 15.9506 9.38794C15.5253 9.81329 15.3126 10.3298 15.3126 10.9374H12.3959C12.3959 9.5277 12.8942 8.32457 13.8907 7.32804C14.8872 6.33152 16.0904 5.83325 17.5001 5.83325C18.9098 5.83325 20.1129 6.32544 21.1095 7.30981C22.106 8.29419 22.6042 9.49124 22.6042 10.901C22.6042 12.0433 22.27 13.0642 21.6016 13.9635C20.9332 14.8628 20.0522 15.4826 18.9584 15.8228V17.1353L31.5001 26.5416C31.6945 26.6631 31.8404 26.8272 31.9376 27.0338C32.0348 27.2404 32.0834 27.4652 32.0834 27.7083C32.0834 28.1214 31.9437 28.4678 31.6641 28.7473C31.3846 29.0268 31.0383 29.1666 30.6251 29.1666H4.37508ZM8.75008 26.2499H26.2501L17.5001 19.6874L8.75008 26.2499Z" fill="#A9A9A9"/>
</svg>
