<svg width="35" height="35" viewBox="0 0 35 35" fill="none" xmlns="http://www.w3.org/2000/svg">
<path d="M4.37484 29.1666C3.96164 29.1666 3.61529 29.0268 3.33577 28.7473C3.05626 28.4678 2.9165 28.1214 2.9165 27.7083C2.9165 27.4652 2.96512 27.2404 3.06234 27.0338C3.15956 26.8272 3.30539 26.6631 3.49984 26.5416L16.0415 17.1353V14.5833C16.0415 14.1701 16.1873 13.8237 16.479 13.5442C16.7707 13.2647 17.1231 13.1249 17.5363 13.1249C18.1439 13.1249 18.6544 12.9062 19.0675 12.4687C19.4807 12.0312 19.6873 11.5086 19.6873 10.901C19.6873 10.2933 19.4747 9.7829 19.0493 9.36971C18.624 8.95652 18.1075 8.74992 17.4998 8.74992C16.8922 8.74992 16.3757 8.96259 15.9504 9.38794C15.525 9.81329 15.3123 10.3298 15.3123 10.9374H12.3957C12.3957 9.5277 12.8939 8.32457 13.8905 7.32804C14.887 6.33152 16.0901 5.83325 17.4998 5.83325C18.9096 5.83325 20.1127 6.32544 21.1092 7.30981C22.1057 8.29419 22.604 9.49124 22.604 10.901C22.604 12.0433 22.2698 13.0642 21.6014 13.9635C20.933 14.8628 20.0519 15.4826 18.9582 15.8228V17.1353L31.4998 26.5416C31.6943 26.6631 31.8401 26.8272 31.9373 27.0338C32.0346 27.2404 32.0832 27.4652 32.0832 27.7083C32.0832 28.1214 31.9434 28.4678 31.6639 28.7473C31.3844 29.0268 31.038 29.1666 30.6248 29.1666H4.37484ZM8.74984 26.2499H26.2498L17.4998 19.6874L8.74984 26.2499Z" fill="#1AEBFF"/>
</svg>
