<svg width="30" height="30" viewBox="0 0 30 30" fill="none" xmlns="http://www.w3.org/2000/svg">
  <path d="M26.5438 29.5306L17.2635 19.9715C16.4349 20.6543 15.482 21.1949 14.4048 21.5932C13.3276 21.9915 12.1814 22.1906 10.9661 22.1906C7.95554 22.1906 5.40788 21.1169 3.32312 18.9696C1.23727 16.8211 0.194336 14.1963 0.194336 11.0953C0.194336 7.99431 1.23727 5.36956 3.32312 3.22105C5.40788 1.07368 7.95554 0 10.9661 0C13.9767 0 16.5249 1.07368 18.6108 3.22105C20.6955 5.36956 21.7379 7.99431 21.7379 11.0953C21.7379 12.3471 21.5446 13.5277 21.1579 14.6373C20.7712 15.7468 20.2464 16.7283 19.5835 17.5818L28.9053 27.1835C29.2091 27.4964 29.361 27.8805 29.361 28.3357C29.361 28.7909 29.1953 29.1892 28.8638 29.5306C28.56 29.8435 28.1733 30 27.7038 30C27.2343 30 26.8476 29.8435 26.5438 29.5306ZM10.9661 18.7767C13.0376 18.7767 14.7987 18.0302 16.2493 16.5371C17.6988 15.043 18.4235 13.229 18.4235 11.0953C18.4235 8.96159 17.6988 7.14765 16.2493 5.65348C14.7987 4.16045 13.0376 3.41394 10.9661 3.41394C8.89462 3.41394 7.13357 4.16045 5.68297 5.65348C4.23348 7.14765 3.50873 8.96159 3.50873 11.0953C3.50873 13.229 4.23348 15.043 5.68297 16.5371C7.13357 18.0302 8.89462 18.7767 10.9661 18.7767Z" fill="#FF6969"/>
</svg>
